<?xml version="1.0"?>
<!DOCTYPE svg PUBLIC "-//W3C//DTD SVG 1.1//EN" "http://www.w3.org/Graphics/SVG/1.1/DTD/svg11.dtd">
<svg width="30.595973146092266mm" height="30.599415105651012mm" viewBox="0 0 30.595973146092266 30.599415105651012" xmlns="http://www.w3.org/2000/svg" version="1.1">
<g id="Body002" transform="translate(15.296013,15.299628) scale(1,-1)">
<path id="Body002_f0000"  d="M 10.32 2.7466779923115747 L 9.096329897628419 5.594946146922253 L 13.096329897623054 7.313422127337846 A 15 15 0 1 1 15 -3.67394e-15A 15 15 0 0 1 14.32 4.46515L 10.32 2.7466779923115756 Z " stroke="#191919" stroke-width="0.35 px" style="stroke-width:0.35;stroke-miterlimit:4;stroke-dasharray:none;stroke-linecap:square;fill:#ffff80;fill-opacity:1.0;fill-rule: evenodd"/>
<path id="Body002_f0001"  d="M 15.0 0.0 A 15 15 0 1 0 13.0963 7.31342L 13.096329897623383 7.313422127337962 A 15 15 0 1 1 15 -3.67394e-15A 15 15 0 0 1 14.32 4.46515L 14.319999999994334 4.46515397272772 A 15 15 0 0 0 15 3.67394e-15Z M 3.05 -14.68664359205329 C 3.136990632019369 -14.690653367419243 0.8178752695961135 -15.151565556385783 -1.14902007558732 -14.955927014595163 C -2.7865710023095653 -14.805229559097498 -3.2855813860424266 -14.617316307982776 -2.9494345606135255 -14.707169536408376 C -2.7749096326458296 -14.753980458137526 -2.315137460642982 -14.824123270803442 -1.5701180446049792 -14.917597974406128 C -0.5929672322771681 -15.020197911689488 0.40821513800226916 -15.024782682482439 1.433429066233331 -14.931352286784929 C 2.533260647946672 -14.78820439820948 3.072117625868897 -14.70663483329894 3.049999999999999 -14.686643592053294 Z " stroke="#191919" stroke-width="0.35 px" style="stroke-width:0.35;stroke-miterlimit:4;stroke-dasharray:none;stroke-linecap:square;fill:#ffff80;fill-opacity:1.0;fill-rule: evenodd"/>
<path id="Body002_f0002"  d="M 13.096329897623383 7.3134221273393685 L 9.096329897628419 5.594946146922254 L 9.096329897628419 5.594946146922253 L 13.096329897623383 7.313422127337962 L 13.096329897623054 7.313422127337846 Z " stroke="#191919" stroke-width="0.35 px" style="stroke-width:0.35;stroke-miterlimit:4;stroke-dasharray:none;stroke-linecap:square;fill:#ffff80;fill-opacity:1.0;fill-rule: evenodd"/>
<path id="Body002_f0003"  d="M 10.32 2.7466779923115756 L 10.32 2.7466779923115756 L 9.096329897628419 5.594946146922253 L 9.096329897628419 5.594946146922253 L 10.32 2.746677992311576 Z " stroke="#191919" stroke-width="0.35 px" style="stroke-width:0.35;stroke-miterlimit:4;stroke-dasharray:none;stroke-linecap:square;fill:#ffff80;fill-opacity:1.0;fill-rule: evenodd"/>
<path id="Body002_f0004"  d="M 14.31999999999444 4.4651539727278085 L 14.31999999999444 4.4651539727278085 L 10.32 2.7466779923115756 L 10.32 2.746677992311576 L 14.319999999994334 4.46515397272772 Z " stroke="#191919" stroke-width="0.35 px" style="stroke-width:0.35;stroke-miterlimit:4;stroke-dasharray:none;stroke-linecap:square;fill:#ffff80;fill-opacity:1.0;fill-rule: evenodd"/>
<path id="Body002_f0005"  d="M 13.096329897623383 7.313422127337962 A 15 15 0 1 1 15 -3.67394e-15A 15 15 0 0 1 14.32 4.46515L 10.32 2.7466779923115756 L 9.096329897628419 5.594946146922253 L 13.096329897623383 7.313422127337962 Z " stroke="#191919" stroke-width="0.35 px" style="stroke-width:0.35;stroke-miterlimit:4;stroke-dasharray:none;stroke-linecap:square;fill:#ffff80;fill-opacity:1.0;fill-rule: evenodd"/>
<path id="Body002_f0006"  d="M 3.05 -14.68664359205329 C 3.136990632019369 -14.690653367419243 0.8178752695961135 -15.151565556385783 -1.14902007558732 -14.955927014595163 C -2.7865710023095653 -14.805229559097498 -3.2855813860424266 -14.617316307982776 -2.9494345606135255 -14.707169536408376 C -2.7749096326458296 -14.753980458137526 -2.315137460642982 -14.824123270803442 -1.5701180446049792 -14.917597974406128 C -0.5929672322771681 -15.020197911689488 0.40821513800226916 -15.024782682482439 1.433429066233331 -14.931352286784929 C 2.533260647946672 -14.78820439820948 3.072117625868897 -14.70663483329894 3.049999999999999 -14.686643592053294 L 3.05 -10.999999999999998 M 3.05 -11.0 L 3.05 -11.0 Z " stroke="#191919" stroke-width="0.35 px" style="stroke-width:0.35;stroke-miterlimit:4;stroke-dasharray:none;stroke-linecap:square;fill:#ffff80;fill-opacity:1.0;fill-rule: evenodd"/>
<path id="Body002_f0007"  d="M 3.05 -10.999999999999998 M 3.05 -11.0 L 3.05 -11.0 Z " stroke="#191919" stroke-width="0.35 px" style="stroke-width:0.35;stroke-miterlimit:4;stroke-dasharray:none;stroke-linecap:square;fill:#ffff80;fill-opacity:1.0;fill-rule: evenodd"/>
<title>b'kop'</title>
</g>
</svg>