<?xml version="1.0"?>
<!DOCTYPE svg PUBLIC "-//W3C//DTD SVG 1.1//EN" "http://www.w3.org/Graphics/SVG/1.1/DTD/svg11.dtd">
<svg width="18.036057061013445mm" height="24.973842002972138mm" viewBox="0 0 18.036057061013445 24.973842002972138" xmlns="http://www.w3.org/2000/svg" version="1.1">
<g id="Body006" transform="translate(9.018029,24.797018) scale(1,-1)">
<path id="Body006_f0000"  d="M -4.5 0.0 L -4.5 0.0 L -8.841204441673257 24.620193825305204 L -8.841204441673257 24.620193825305204 L -4.5 0.0 Z " stroke="#191919" stroke-width="0.35 px" style="stroke-width:0.35;stroke-miterlimit:4;stroke-dasharray:none;stroke-linecap:square;fill:#ab0000;fill-opacity:1.0;fill-rule: evenodd"/>
<path id="Body006_f0001"  d="M 4.5 0.0 L 4.5 0.0 L -4.5 0.0 L -4.5 0.0 L 4.5 0.0 Z " stroke="#191919" stroke-width="0.35 px" style="stroke-width:0.35;stroke-miterlimit:4;stroke-dasharray:none;stroke-linecap:square;fill:#ab0000;fill-opacity:1.0;fill-rule: evenodd"/>
<path id="Body006_f0002"  d="M 8.84120444167326 24.620193825305208 L 4.5 0.0 L 4.5 0.0 L 8.841204441673257 24.620193825305204 L 8.841204441673257 24.620193825305204 Z " stroke="#191919" stroke-width="0.35 px" style="stroke-width:0.35;stroke-miterlimit:4;stroke-dasharray:none;stroke-linecap:square;fill:#ab0000;fill-opacity:1.0;fill-rule: evenodd"/>
<path id="Body006_f0003"  d="M 4.5 0.0 L -4.5 0.0 L -8.841204441673257 24.620193825305204 L 8.841204441673257 24.620193825305204 L 4.5 0.0 Z " stroke="#191919" stroke-width="0.35 px" style="stroke-width:0.35;stroke-miterlimit:4;stroke-dasharray:none;stroke-linecap:square;fill:#ab0000;fill-opacity:1.0;fill-rule: evenodd"/>
<path id="Body006_f0004"  d="M -4.5 0.0 L 4.5 0.0 L 8.841204441673257 24.620193825305204 L -8.841204441673257 24.620193825305204 L -4.5 0.0 Z " stroke="#191919" stroke-width="0.35 px" style="stroke-width:0.35;stroke-miterlimit:4;stroke-dasharray:none;stroke-linecap:square;fill:#ab0000;fill-opacity:1.0;fill-rule: evenodd"/>
<path id="Body006_f0005"  d="M -8.841204441673257 24.620193825305204 L -8.841204441673257 24.620193825305204 L 8.841204441673257 24.620193825305204 L 8.841204441673257 24.620193825305204 L -8.841204441673257 24.620193825305204 Z " stroke="#191919" stroke-width="0.35 px" style="stroke-width:0.35;stroke-miterlimit:4;stroke-dasharray:none;stroke-linecap:square;fill:#ab0000;fill-opacity:1.0;fill-rule: evenodd"/>
<title>b'Snavel'</title>
</g>
</svg>