<?xml version="1.0"?>
<!DOCTYPE svg PUBLIC "-//W3C//DTD SVG 1.1//EN" "http://www.w3.org/Graphics/SVG/1.1/DTD/svg11.dtd">
<svg width="25.148479885418826mm" height="34.96137880416098mm" viewBox="0 0 25.148479885418826 34.96137880416098" xmlns="http://www.w3.org/2000/svg" version="1.1">
<g id="Body005" transform="translate(12.574240,34.714825) scale(1,-1)">
<path id="Body005_f0000"  d="M -6.25 0.0 L -6.25 0.0 L -12.327686218342562 34.468271355427284 L -12.327686218342562 34.468271355427284 L -6.25 0.0 Z " stroke="#191919" stroke-width="0.35 px" style="stroke-width:0.35;stroke-miterlimit:4;stroke-dasharray:none;stroke-linecap:square;fill:#ffff00;fill-opacity:1.0;fill-rule: evenodd"/>
<path id="Body005_f0001"  d="M 6.25 0.0 L 6.25 0.0 L -6.25 0.0 L -6.25 0.0 L 6.25 0.0 Z " stroke="#191919" stroke-width="0.35 px" style="stroke-width:0.35;stroke-miterlimit:4;stroke-dasharray:none;stroke-linecap:square;fill:#ffff00;fill-opacity:1.0;fill-rule: evenodd"/>
<path id="Body005_f0002"  d="M 12.327686218342562 34.468271355427284 L 6.25 0.0 L 6.25 0.0 L 12.327686218342562 34.468271355427284 L 12.327686218342562 34.468271355427284 Z " stroke="#191919" stroke-width="0.35 px" style="stroke-width:0.35;stroke-miterlimit:4;stroke-dasharray:none;stroke-linecap:square;fill:#ffff00;fill-opacity:1.0;fill-rule: evenodd"/>
<path id="Body005_f0003"  d="M -12.327686218342562 34.468271355427284 L -12.327686218342562 34.468271355427284 L 12.327686218342562 34.468271355427284 L 12.327686218342562 34.468271355427284 L -12.327686218342562 34.468271355427284 Z " stroke="#191919" stroke-width="0.35 px" style="stroke-width:0.35;stroke-miterlimit:4;stroke-dasharray:none;stroke-linecap:square;fill:#ffff00;fill-opacity:1.0;fill-rule: evenodd"/>
<path id="Body005_f0004"  d="M -6.25 0.0 L -12.327686218342562 34.468271355427284 L 12.327686218342562 34.468271355427284 L 6.25 0.0 L -6.25 0.0 Z " stroke="#191919" stroke-width="0.35 px" style="stroke-width:0.35;stroke-miterlimit:4;stroke-dasharray:none;stroke-linecap:square;fill:#ffff00;fill-opacity:1.0;fill-rule: evenodd"/>
<path id="Body005_f0005"  d="M 12.327686218342562 34.468271355427284 L 6.25 0.0 L -6.25 0.0 L -12.327686218342562 34.468271355427284 L 12.327686218342562 34.468271355427284 Z " stroke="#191919" stroke-width="0.35 px" style="stroke-width:0.35;stroke-miterlimit:4;stroke-dasharray:none;stroke-linecap:square;fill:#ffff00;fill-opacity:1.0;fill-rule: evenodd"/>
<title>b'Staart'</title>
</g>
</svg>